REM MD5 c3ad679050ef9bc8b91feaa641c7b908
FILE "Fushigi no Kuni no Angelique (Japan).bin" BINARY
  TRACK 01 MODE2/2352
    INDEX 01 00:00:00
  TRACK 02 AUDIO
    INDEX 00 19:46:08
    INDEX 01 19:48:08
  TRACK 03 AUDIO
    INDEX 00 36:13:12
    INDEX 01 36:15:12
  TRACK 04 AUDIO
    INDEX 00 39:15:53
    INDEX 01 39:17:53
REM LEADOUT 42:17:54
